<mxfile host="app.diagrams.net" agent="Mozilla/5.0 (Windows NT 10.0; Win64; x64) AppleWebKit/537.36 (KHTML, like Gecko) Chrome/129.0.0.0 Safari/537.36" version="24.7.17">
  <diagram name="Page-1" id="EisDY1uOvVvprTvHAUOM">
    <mxGraphModel dx="1816" dy="857" grid="1" gridSize="10" guides="1" tooltips="1" connect="1" arrows="1" fold="1" page="1" pageScale="1" pageWidth="850" pageHeight="1100" math="0" shadow="0">
      <root>
        <mxCell id="0" />
        <mxCell id="1" parent="0" />
        <mxCell id="V-JD8TqY0EGr1oHjOZzM-1" value="AEROPUERTO" style="rounded=0;whiteSpace=wrap;html=1;" parent="1" vertex="1">
          <mxGeometry x="140" y="280" width="120" height="60" as="geometry" />
        </mxCell>
        <mxCell id="V-JD8TqY0EGr1oHjOZzM-2" value="" style="endArrow=none;html=1;rounded=0;endFill=0;startArrow=oval;startFill=1;exitX=0;exitY=0;exitDx=0;exitDy=0;" parent="1" source="V-JD8TqY0EGr1oHjOZzM-3" edge="1">
          <mxGeometry width="50" height="50" relative="1" as="geometry">
            <mxPoint x="140" y="410" as="sourcePoint" />
            <mxPoint x="140" y="340" as="targetPoint" />
          </mxGeometry>
        </mxCell>
        <mxCell id="V-JD8TqY0EGr1oHjOZzM-3" value="codigo" style="text;html=1;align=left;verticalAlign=middle;whiteSpace=wrap;rounded=0;" parent="1" vertex="1">
          <mxGeometry x="140" y="440" width="60" height="30" as="geometry" />
        </mxCell>
        <mxCell id="V-JD8TqY0EGr1oHjOZzM-4" value="" style="endArrow=none;html=1;rounded=0;endFill=0;startArrow=oval;startFill=0;exitX=0;exitY=0;exitDx=0;exitDy=0;" parent="1" edge="1">
          <mxGeometry width="50" height="50" relative="1" as="geometry">
            <mxPoint x="150" y="414" as="sourcePoint" />
            <mxPoint x="151" y="340" as="targetPoint" />
          </mxGeometry>
        </mxCell>
        <mxCell id="V-JD8TqY0EGr1oHjOZzM-5" value="nombre" style="text;html=1;align=left;verticalAlign=middle;whiteSpace=wrap;rounded=0;" parent="1" vertex="1">
          <mxGeometry x="148" y="414" width="90" height="30" as="geometry" />
        </mxCell>
        <mxCell id="V-JD8TqY0EGr1oHjOZzM-6" value="" style="endArrow=none;html=1;rounded=0;endFill=0;startArrow=oval;startFill=0;entryX=0.207;entryY=1.001;entryDx=0;entryDy=0;entryPerimeter=0;" parent="1" target="V-JD8TqY0EGr1oHjOZzM-1" edge="1">
          <mxGeometry width="50" height="50" relative="1" as="geometry">
            <mxPoint x="162" y="387" as="sourcePoint" />
            <mxPoint x="160.64" y="357.4" as="targetPoint" />
          </mxGeometry>
        </mxCell>
        <mxCell id="V-JD8TqY0EGr1oHjOZzM-7" value="ciudad" style="text;html=1;align=left;verticalAlign=middle;whiteSpace=wrap;rounded=0;" parent="1" vertex="1">
          <mxGeometry x="160" y="384" width="35" height="30" as="geometry" />
        </mxCell>
        <mxCell id="V-JD8TqY0EGr1oHjOZzM-8" value="" style="endArrow=none;html=1;rounded=0;endFill=0;startArrow=oval;startFill=0;" parent="1" edge="1">
          <mxGeometry width="50" height="50" relative="1" as="geometry">
            <mxPoint x="181" y="352" as="sourcePoint" />
            <mxPoint x="181" y="340" as="targetPoint" />
          </mxGeometry>
        </mxCell>
        <mxCell id="V-JD8TqY0EGr1oHjOZzM-9" value="pais" style="text;html=1;align=left;verticalAlign=middle;whiteSpace=wrap;rounded=0;" parent="1" vertex="1">
          <mxGeometry x="175" y="354" width="35" height="30" as="geometry" />
        </mxCell>
        <mxCell id="aIwngKQlEGUcfDatc4NZ-8" style="edgeStyle=orthogonalEdgeStyle;rounded=0;orthogonalLoop=1;jettySize=auto;html=1;exitX=1;exitY=0.5;exitDx=0;exitDy=0;endArrow=none;endFill=0;" parent="1" source="V-JD8TqY0EGr1oHjOZzM-10" target="aIwngKQlEGUcfDatc4NZ-9" edge="1">
          <mxGeometry relative="1" as="geometry">
            <mxPoint x="640" y="440" as="targetPoint" />
          </mxGeometry>
        </mxCell>
        <mxCell id="V-JD8TqY0EGr1oHjOZzM-10" value="MODELO_AVION" style="rounded=0;whiteSpace=wrap;html=1;" parent="1" vertex="1">
          <mxGeometry x="460" y="280" width="120" height="60" as="geometry" />
        </mxCell>
        <mxCell id="V-JD8TqY0EGr1oHjOZzM-11" value="" style="endArrow=none;html=1;rounded=0;endFill=0;startArrow=oval;startFill=1;exitX=0;exitY=0;exitDx=0;exitDy=0;" parent="1" source="V-JD8TqY0EGr1oHjOZzM-12" edge="1">
          <mxGeometry width="50" height="50" relative="1" as="geometry">
            <mxPoint x="460" y="410" as="sourcePoint" />
            <mxPoint x="460" y="340" as="targetPoint" />
          </mxGeometry>
        </mxCell>
        <mxCell id="V-JD8TqY0EGr1oHjOZzM-12" value="id_avion" style="text;html=1;align=left;verticalAlign=middle;whiteSpace=wrap;rounded=0;" parent="1" vertex="1">
          <mxGeometry x="460" y="440" width="60" height="30" as="geometry" />
        </mxCell>
        <mxCell id="V-JD8TqY0EGr1oHjOZzM-15" value="" style="endArrow=none;html=1;rounded=0;endFill=0;startArrow=oval;startFill=0;exitX=0;exitY=0.5;exitDx=0;exitDy=0;entryX=0.25;entryY=1;entryDx=0;entryDy=0;" parent="1" source="V-JD8TqY0EGr1oHjOZzM-16" target="V-JD8TqY0EGr1oHjOZzM-10" edge="1">
          <mxGeometry width="50" height="50" relative="1" as="geometry">
            <mxPoint x="482" y="387" as="sourcePoint" />
            <mxPoint x="510" y="431.4000000000001" as="targetPoint" />
          </mxGeometry>
        </mxCell>
        <mxCell id="V-JD8TqY0EGr1oHjOZzM-16" value="numero_plazas" style="text;html=1;align=center;verticalAlign=middle;whiteSpace=wrap;rounded=0;" parent="1" vertex="1">
          <mxGeometry x="490" y="400" width="110" height="30" as="geometry" />
        </mxCell>
        <mxCell id="aIwngKQlEGUcfDatc4NZ-6" style="rounded=0;orthogonalLoop=1;jettySize=auto;html=1;exitX=0.5;exitY=0;exitDx=0;exitDy=0;entryX=0.5;entryY=1;entryDx=0;entryDy=0;endArrow=none;endFill=0;" parent="1" source="V-JD8TqY0EGr1oHjOZzM-21" target="aIwngKQlEGUcfDatc4NZ-5" edge="1">
          <mxGeometry relative="1" as="geometry" />
        </mxCell>
        <mxCell id="V-JD8TqY0EGr1oHjOZzM-21" value="PROGRAMA_VUELO" style="rounded=0;whiteSpace=wrap;html=1;" parent="1" vertex="1">
          <mxGeometry x="145" y="586" width="140" height="60" as="geometry" />
        </mxCell>
        <mxCell id="V-JD8TqY0EGr1oHjOZzM-22" value="" style="endArrow=none;html=1;rounded=0;endFill=0;startArrow=oval;startFill=1;exitX=0;exitY=0;exitDx=0;exitDy=0;" parent="1" edge="1">
          <mxGeometry width="50" height="50" relative="1" as="geometry">
            <mxPoint x="152" y="745" as="sourcePoint" />
            <mxPoint x="152" y="645" as="targetPoint" />
          </mxGeometry>
        </mxCell>
        <mxCell id="V-JD8TqY0EGr1oHjOZzM-23" value="id_vuelo" style="text;html=1;align=left;verticalAlign=middle;whiteSpace=wrap;rounded=0;" parent="1" vertex="1">
          <mxGeometry x="148" y="749" width="60" height="30" as="geometry" />
        </mxCell>
        <mxCell id="V-JD8TqY0EGr1oHjOZzM-24" value="" style="endArrow=none;html=1;rounded=0;endFill=0;startArrow=oval;startFill=0;exitX=0;exitY=0;exitDx=0;exitDy=0;" parent="1" edge="1">
          <mxGeometry width="50" height="50" relative="1" as="geometry">
            <mxPoint x="162" y="719" as="sourcePoint" />
            <mxPoint x="163" y="645" as="targetPoint" />
          </mxGeometry>
        </mxCell>
        <mxCell id="V-JD8TqY0EGr1oHjOZzM-25" value="compania" style="text;html=1;align=left;verticalAlign=middle;whiteSpace=wrap;rounded=0;" parent="1" vertex="1">
          <mxGeometry x="160" y="719" width="90" height="30" as="geometry" />
        </mxCell>
        <mxCell id="V-JD8TqY0EGr1oHjOZzM-26" value="" style="endArrow=none;html=1;rounded=0;endFill=0;startArrow=oval;startFill=0;entryX=0.207;entryY=1.001;entryDx=0;entryDy=0;entryPerimeter=0;" parent="1" target="V-JD8TqY0EGr1oHjOZzM-21" edge="1">
          <mxGeometry width="50" height="50" relative="1" as="geometry">
            <mxPoint x="174" y="692" as="sourcePoint" />
            <mxPoint x="172.64" y="662.4" as="targetPoint" />
          </mxGeometry>
        </mxCell>
        <mxCell id="V-JD8TqY0EGr1oHjOZzM-27" value="ruta" style="text;html=1;align=left;verticalAlign=middle;whiteSpace=wrap;rounded=0;" parent="1" vertex="1">
          <mxGeometry x="176" y="689" width="35" height="30" as="geometry" />
        </mxCell>
        <mxCell id="V-JD8TqY0EGr1oHjOZzM-30" value="aterriza" style="rhombus;whiteSpace=wrap;html=1;" parent="1" vertex="1">
          <mxGeometry x="247" y="430" width="80" height="30" as="geometry" />
        </mxCell>
        <mxCell id="V-JD8TqY0EGr1oHjOZzM-33" value="" style="endArrow=none;html=1;rounded=0;entryX=0.5;entryY=1;entryDx=0;entryDy=0;" parent="1" target="V-JD8TqY0EGr1oHjOZzM-30" edge="1">
          <mxGeometry width="50" height="50" relative="1" as="geometry">
            <mxPoint x="228" y="585" as="sourcePoint" />
            <mxPoint x="227.5" y="535" as="targetPoint" />
          </mxGeometry>
        </mxCell>
        <mxCell id="V-JD8TqY0EGr1oHjOZzM-41" value="" style="endArrow=none;html=1;rounded=0;exitX=0.5;exitY=0;exitDx=0;exitDy=0;" parent="1" source="V-JD8TqY0EGr1oHjOZzM-30" edge="1">
          <mxGeometry width="50" height="50" relative="1" as="geometry">
            <mxPoint x="238" y="595" as="sourcePoint" />
            <mxPoint x="222" y="340" as="targetPoint" />
          </mxGeometry>
        </mxCell>
        <mxCell id="V-JD8TqY0EGr1oHjOZzM-52" value="VUELO" style="rounded=0;whiteSpace=wrap;html=1;" parent="1" vertex="1">
          <mxGeometry x="544" y="590" width="140" height="60" as="geometry" />
        </mxCell>
        <mxCell id="V-JD8TqY0EGr1oHjOZzM-53" value="" style="endArrow=none;html=1;rounded=0;endFill=0;startArrow=oval;startFill=1;exitX=0;exitY=0;exitDx=0;exitDy=0;" parent="1" edge="1">
          <mxGeometry width="50" height="50" relative="1" as="geometry">
            <mxPoint x="544" y="750" as="sourcePoint" />
            <mxPoint x="544" y="650" as="targetPoint" />
          </mxGeometry>
        </mxCell>
        <mxCell id="V-JD8TqY0EGr1oHjOZzM-54" value="id_vuelo" style="text;html=1;align=left;verticalAlign=middle;whiteSpace=wrap;rounded=0;" parent="1" vertex="1">
          <mxGeometry x="540" y="754" width="60" height="30" as="geometry" />
        </mxCell>
        <mxCell id="V-JD8TqY0EGr1oHjOZzM-55" value="" style="endArrow=none;html=1;rounded=0;endFill=0;startArrow=oval;startFill=0;exitX=0;exitY=0;exitDx=0;exitDy=0;" parent="1" edge="1">
          <mxGeometry width="50" height="50" relative="1" as="geometry">
            <mxPoint x="554" y="724" as="sourcePoint" />
            <mxPoint x="555" y="650" as="targetPoint" />
          </mxGeometry>
        </mxCell>
        <mxCell id="V-JD8TqY0EGr1oHjOZzM-56" value="fecha" style="text;html=1;align=left;verticalAlign=middle;whiteSpace=wrap;rounded=0;" parent="1" vertex="1">
          <mxGeometry x="552" y="724" width="90" height="30" as="geometry" />
        </mxCell>
        <mxCell id="V-JD8TqY0EGr1oHjOZzM-57" value="" style="endArrow=none;html=1;rounded=0;endFill=0;startArrow=oval;startFill=0;entryX=1;entryY=1;entryDx=0;entryDy=0;exitX=0;exitY=0.5;exitDx=0;exitDy=0;dashed=1;" parent="1" source="V-JD8TqY0EGr1oHjOZzM-58" target="aIwngKQlEGUcfDatc4NZ-9" edge="1">
          <mxGeometry width="50" height="50" relative="1" as="geometry">
            <mxPoint x="566" y="697" as="sourcePoint" />
            <mxPoint x="564.64" y="667.4" as="targetPoint" />
          </mxGeometry>
        </mxCell>
        <mxCell id="V-JD8TqY0EGr1oHjOZzM-58" value="plazas_vacias" style="text;html=1;align=center;verticalAlign=middle;whiteSpace=wrap;rounded=0;" parent="1" vertex="1">
          <mxGeometry x="690" y="490" width="99" height="30" as="geometry" />
        </mxCell>
        <mxCell id="V-JD8TqY0EGr1oHjOZzM-61" value="pertenece" style="rhombus;whiteSpace=wrap;html=1;" parent="1" vertex="1">
          <mxGeometry x="377" y="601" width="80" height="45" as="geometry" />
        </mxCell>
        <mxCell id="V-JD8TqY0EGr1oHjOZzM-62" value="" style="endArrow=none;html=1;rounded=0;entryX=1;entryY=0.5;entryDx=0;entryDy=0;" parent="1" target="V-JD8TqY0EGr1oHjOZzM-61" edge="1">
          <mxGeometry width="50" height="50" relative="1" as="geometry">
            <mxPoint x="545" y="620" as="sourcePoint" />
            <mxPoint x="457" y="620" as="targetPoint" />
          </mxGeometry>
        </mxCell>
        <mxCell id="V-JD8TqY0EGr1oHjOZzM-63" value="" style="endArrow=none;html=1;rounded=0;entryX=1;entryY=0.5;entryDx=0;entryDy=0;exitX=0;exitY=0.5;exitDx=0;exitDy=0;" parent="1" source="V-JD8TqY0EGr1oHjOZzM-61" target="V-JD8TqY0EGr1oHjOZzM-21" edge="1">
          <mxGeometry width="50" height="50" relative="1" as="geometry">
            <mxPoint x="380" y="620" as="sourcePoint" />
            <mxPoint x="292" y="620" as="targetPoint" />
          </mxGeometry>
        </mxCell>
        <mxCell id="V-JD8TqY0EGr1oHjOZzM-64" value="tiene" style="rhombus;whiteSpace=wrap;html=1;" parent="1" vertex="1">
          <mxGeometry x="327" y="291" width="80" height="30" as="geometry" />
        </mxCell>
        <mxCell id="V-JD8TqY0EGr1oHjOZzM-65" value="" style="endArrow=none;html=1;rounded=0;entryX=0.5;entryY=1;entryDx=0;entryDy=0;" parent="1" edge="1">
          <mxGeometry width="50" height="50" relative="1" as="geometry">
            <mxPoint x="460" y="306" as="sourcePoint" />
            <mxPoint x="407" y="306" as="targetPoint" />
          </mxGeometry>
        </mxCell>
        <mxCell id="V-JD8TqY0EGr1oHjOZzM-66" value="" style="endArrow=none;html=1;rounded=0;entryX=1;entryY=0.5;entryDx=0;entryDy=0;" parent="1" target="V-JD8TqY0EGr1oHjOZzM-1" edge="1">
          <mxGeometry width="50" height="50" relative="1" as="geometry">
            <mxPoint x="330" y="306" as="sourcePoint" />
            <mxPoint x="242" y="306" as="targetPoint" />
          </mxGeometry>
        </mxCell>
        <mxCell id="V-JD8TqY0EGr1oHjOZzM-68" value="(1,M)" style="text;html=1;align=center;verticalAlign=middle;whiteSpace=wrap;rounded=0;" parent="1" vertex="1">
          <mxGeometry x="410" y="270" width="60" height="30" as="geometry" />
        </mxCell>
        <mxCell id="V-JD8TqY0EGr1oHjOZzM-69" value="(1,N)" style="text;html=1;align=center;verticalAlign=middle;whiteSpace=wrap;rounded=0;" parent="1" vertex="1">
          <mxGeometry x="248" y="276" width="60" height="30" as="geometry" />
        </mxCell>
        <mxCell id="V-JD8TqY0EGr1oHjOZzM-70" value="(1,W)" style="text;html=1;align=center;verticalAlign=middle;whiteSpace=wrap;rounded=0;" parent="1" vertex="1">
          <mxGeometry x="483" y="588" width="60" height="30" as="geometry" />
        </mxCell>
        <mxCell id="V-JD8TqY0EGr1oHjOZzM-74" value="N:M" style="text;html=1;align=center;verticalAlign=middle;whiteSpace=wrap;rounded=0;" parent="1" vertex="1">
          <mxGeometry x="335" y="265" width="60" height="30" as="geometry" />
        </mxCell>
        <mxCell id="V-JD8TqY0EGr1oHjOZzM-75" value="(1,1)" style="text;html=1;align=center;verticalAlign=middle;whiteSpace=wrap;rounded=0;" parent="1" vertex="1">
          <mxGeometry x="287" y="589" width="60" height="30" as="geometry" />
        </mxCell>
        <mxCell id="V-JD8TqY0EGr1oHjOZzM-76" value="X:1" style="text;html=1;align=center;verticalAlign=middle;whiteSpace=wrap;rounded=0;" parent="1" vertex="1">
          <mxGeometry x="390" y="579" width="60" height="30" as="geometry" />
        </mxCell>
        <mxCell id="aIwngKQlEGUcfDatc4NZ-1" value="DIA_SEMANA" style="rounded=0;whiteSpace=wrap;html=1;" parent="1" vertex="1">
          <mxGeometry x="-230" y="589" width="120" height="60" as="geometry" />
        </mxCell>
        <mxCell id="aIwngKQlEGUcfDatc4NZ-2" style="rounded=0;orthogonalLoop=1;jettySize=auto;html=1;exitX=1;exitY=0.5;exitDx=0;exitDy=0;entryX=0;entryY=0.5;entryDx=0;entryDy=0;endArrow=none;endFill=0;" parent="1" source="aIwngKQlEGUcfDatc4NZ-1" target="aIwngKQlEGUcfDatc4NZ-3" edge="1">
          <mxGeometry relative="1" as="geometry" />
        </mxCell>
        <mxCell id="aIwngKQlEGUcfDatc4NZ-4" style="rounded=0;orthogonalLoop=1;jettySize=auto;html=1;exitX=1;exitY=0.5;exitDx=0;exitDy=0;entryX=0;entryY=0.5;entryDx=0;entryDy=0;endArrow=none;endFill=0;" parent="1" source="aIwngKQlEGUcfDatc4NZ-3" target="V-JD8TqY0EGr1oHjOZzM-21" edge="1">
          <mxGeometry relative="1" as="geometry" />
        </mxCell>
        <mxCell id="aIwngKQlEGUcfDatc4NZ-3" value="vuela" style="rhombus;whiteSpace=wrap;html=1;" parent="1" vertex="1">
          <mxGeometry x="-26" y="597" width="80" height="39" as="geometry" />
        </mxCell>
        <mxCell id="aIwngKQlEGUcfDatc4NZ-7" style="rounded=0;orthogonalLoop=1;jettySize=auto;html=1;exitX=0.5;exitY=0;exitDx=0;exitDy=0;entryX=0;entryY=0.5;entryDx=0;entryDy=0;endArrow=none;endFill=0;" parent="1" source="aIwngKQlEGUcfDatc4NZ-5" target="V-JD8TqY0EGr1oHjOZzM-1" edge="1">
          <mxGeometry relative="1" as="geometry" />
        </mxCell>
        <mxCell id="aIwngKQlEGUcfDatc4NZ-5" value="despega" style="rhombus;whiteSpace=wrap;html=1;" parent="1" vertex="1">
          <mxGeometry x="20" y="440" width="80" height="30" as="geometry" />
        </mxCell>
        <mxCell id="aIwngKQlEGUcfDatc4NZ-10" style="edgeStyle=orthogonalEdgeStyle;rounded=0;orthogonalLoop=1;jettySize=auto;html=1;endArrow=none;endFill=0;" parent="1" source="aIwngKQlEGUcfDatc4NZ-9" target="V-JD8TqY0EGr1oHjOZzM-52" edge="1">
          <mxGeometry relative="1" as="geometry">
            <Array as="points">
              <mxPoint x="640" y="560" />
              <mxPoint x="640" y="560" />
            </Array>
          </mxGeometry>
        </mxCell>
        <mxCell id="aIwngKQlEGUcfDatc4NZ-9" value="pueder&amp;nbsp;&lt;div&gt;usar&lt;/div&gt;" style="rhombus;whiteSpace=wrap;html=1;" parent="1" vertex="1">
          <mxGeometry x="600" y="440" width="80" height="40" as="geometry" />
        </mxCell>
        <mxCell id="5VTOv1QuKca6kUvrQIwd-2" value="(1,M)" style="text;html=1;align=center;verticalAlign=middle;whiteSpace=wrap;rounded=0;" vertex="1" parent="1">
          <mxGeometry x="-122" y="590" width="60" height="30" as="geometry" />
        </mxCell>
        <mxCell id="5VTOv1QuKca6kUvrQIwd-3" value="(1,N)" style="text;html=1;align=center;verticalAlign=middle;whiteSpace=wrap;rounded=0;" vertex="1" parent="1">
          <mxGeometry x="92" y="585" width="60" height="30" as="geometry" />
        </mxCell>
        <mxCell id="5VTOv1QuKca6kUvrQIwd-4" value="M:N" style="text;html=1;align=center;verticalAlign=middle;whiteSpace=wrap;rounded=0;" vertex="1" parent="1">
          <mxGeometry x="-19" y="569" width="60" height="30" as="geometry" />
        </mxCell>
        <mxCell id="5VTOv1QuKca6kUvrQIwd-5" value="(1,1)" style="text;html=1;align=center;verticalAlign=middle;whiteSpace=wrap;rounded=0;" vertex="1" parent="1">
          <mxGeometry x="89" y="272" width="60" height="30" as="geometry" />
        </mxCell>
        <mxCell id="5VTOv1QuKca6kUvrQIwd-6" value="(1,M)" style="text;html=1;align=center;verticalAlign=middle;whiteSpace=wrap;rounded=0;" vertex="1" parent="1">
          <mxGeometry x="133" y="552" width="60" height="30" as="geometry" />
        </mxCell>
        <mxCell id="5VTOv1QuKca6kUvrQIwd-7" value="1:N" style="text;html=1;align=center;verticalAlign=middle;whiteSpace=wrap;rounded=0;" vertex="1" parent="1">
          <mxGeometry x="-31" y="442" width="60" height="30" as="geometry" />
        </mxCell>
        <mxCell id="5VTOv1QuKca6kUvrQIwd-8" value="(1,1)" style="text;html=1;align=center;verticalAlign=middle;whiteSpace=wrap;rounded=0;" vertex="1" parent="1">
          <mxGeometry x="250" y="316" width="60" height="30" as="geometry" />
        </mxCell>
        <mxCell id="5VTOv1QuKca6kUvrQIwd-9" value="(1,M)" style="text;html=1;align=center;verticalAlign=middle;whiteSpace=wrap;rounded=0;" vertex="1" parent="1">
          <mxGeometry x="237" y="556" width="60" height="30" as="geometry" />
        </mxCell>
        <mxCell id="5VTOv1QuKca6kUvrQIwd-10" value="1:M" style="text;html=1;align=center;verticalAlign=middle;whiteSpace=wrap;rounded=0;" vertex="1" parent="1">
          <mxGeometry x="317" y="426" width="60" height="30" as="geometry" />
        </mxCell>
        <mxCell id="5VTOv1QuKca6kUvrQIwd-11" value="(1,1)" style="text;html=1;align=center;verticalAlign=middle;whiteSpace=wrap;rounded=0;" vertex="1" parent="1">
          <mxGeometry x="570" y="273" width="60" height="30" as="geometry" />
        </mxCell>
        <mxCell id="5VTOv1QuKca6kUvrQIwd-12" value="(1,M)" style="text;html=1;align=center;verticalAlign=middle;whiteSpace=wrap;rounded=0;" vertex="1" parent="1">
          <mxGeometry x="680" y="583" width="60" height="30" as="geometry" />
        </mxCell>
        <mxCell id="5VTOv1QuKca6kUvrQIwd-13" value="1:M" style="text;html=1;align=center;verticalAlign=middle;whiteSpace=wrap;rounded=0;" vertex="1" parent="1">
          <mxGeometry x="650" y="423" width="60" height="30" as="geometry" />
        </mxCell>
      </root>
    </mxGraphModel>
  </diagram>
</mxfile>
